<?xml version="1.0" encoding="UTF-8"?>
<svg version="1.1" xmlns="http://www.w3.org/2000/svg" width="1563" height="1563">
<path d="M0 0 C0.07652174 4.74434812 0.01933919 9.34455948 -0.5 14.0625 C-2.53466539 33.2591256 3.07364102 52.03276612 12.046875 68.87109375 C13 71 13 71 13 74 C13.66 74 14.32 74 15 74 C15.64834654 75.269553 16.29357815 76.54069706 16.9375 77.8125 C17.29714844 78.52019531 17.65679687 79.22789062 18.02734375 79.95703125 C19 82 19 82 20 85 C20.66 85 21.32 85 22 85 C22 85.99 22 86.98 22 88 C22.66 88 23.32 88 24 88 C24 88.99 24 89.98 24 91 C24.66 91 25.32 91 26 91 C26 91.99 26 92.98 26 94 C26.66 94 27.32 94 28 94 C28 94.66 28 95.32 28 96 C28.66 96 29.32 96 30 96 C30 96.99 30 97.98 30 99 C30.66 99 31.32 99 32 99 C35 102.46153846 35 102.46153846 35 105 C35.66 105 36.32 105 37 105 C37 105.66 37 106.32 37 107 C37.66 107 38.32 107 39 107 C42 110.46153846 42 110.46153846 42 113 C42.66 113 43.32 113 44 113 C44 113.66 44 114.32 44 115 C44.66 115 45.32 115 46 115 C47.5078125 116.4609375 47.5078125 116.4609375 49.125 118.375 C49.66382813 119.00148438 50.20265625 119.62796875 50.7578125 120.2734375 C52 122 52 122 52 124 C52.639375 124.268125 53.27875 124.53625 53.9375 124.8125 C56 126 56 126 57 129 C57.99 129.33 58.98 129.66 60 130 C60 130.66 60 131.32 60 132 C60.66 132 61.32 132 62 132 C62 132.66 62 133.32 62 134 C62.99 134.33 63.98 134.66 65 135 C65 135.66 65 136.32 65 137 C65.66 137 66.32 137 67 137 C68.625 138.375 68.625 138.375 70 140 C70 140.66 70 141.32 70 142 C70.99 142.33 71.98 142.66 73 143 C73 143.66 73 144.32 73 145 C73.639375 145.268125 74.27875 145.53625 74.9375 145.8125 C77 147 77 147 78 150 C79.31361346 150.70472825 80.65062838 151.36642408 82 152 C83.32332152 153.08758813 84.61422166 154.215489 85.875 155.375 C88.26528296 157.52137654 90.50162805 159.3344187 93.1875 161.125 C96.18971636 163.12647757 98.4904666 165.42075734 101 168 C101.66 168.33 102.32 168.66 103 169 C103 169.66 103 170.32 103 171 C103.804375 171.37125 103.804375 171.37125 104.625 171.75 C107.5823982 173.30652537 110.29724051 175.03435673 113 177 C113 177.66 113 178.32 113 179 C113.52335938 179.23332031 114.04671875 179.46664062 114.5859375 179.70703125 C117.79811091 181.42746717 120.6843271 183.54893748 123.625 185.6875 C124.87215049 186.58627804 126.1195481 187.48471326 127.3671875 188.3828125 C127.98045898 188.8252832 128.59373047 189.26775391 129.22558594 189.72363281 C131.72232362 191.51958006 134.23351396 193.29435674 136.75 195.0625 C137.91789062 195.88427734 137.91789062 195.88427734 139.109375 196.72265625 C140.9686719 198.03856821 140.9686719 198.03856821 143 199 C143 199.66 143 200.32 143 201 C143.71929687 201.25394531 144.43859375 201.50789062 145.1796875 201.76953125 C148.20833661 203.09089478 150.49647472 204.69060542 153.125 206.6875 C157.63753672 210.03881061 162.23540028 213.11587517 167 216.09375 C169.81713155 217.88380234 172.58748139 219.72775186 175.35351562 221.5949707 C181.67631695 225.86253601 188.08077332 229.92231163 194.64428711 233.80932617 C198.40956565 236.03970145 202.12804692 238.32447524 205.8125 240.6875 C213.30670988 245.49176453 220.91519919 250.00145902 228.74609375 254.234375 C247.42949363 264.37230627 247.42949363 264.37230627 255.375 269.25 C259.70960826 271.89359413 264.18949081 274.14034415 268.74609375 276.375 C272.28535133 278.14250438 275.76804553 279.99807972 279.25 281.875 C286.43326505 285.73568247 293.70703178 289.39466071 301.01464844 293.01318359 C302.93269677 293.96654702 304.8460451 294.92864353 306.7578125 295.89453125 C317.43374361 301.28220368 328.21569853 306.43985836 339.01464844 311.57568359 C342.03711685 313.01770851 345.05426498 314.47037996 348.0703125 315.92578125 C349.03557861 316.39000488 350.00084473 316.85422852 350.99536133 317.33251953 C352.84034745 318.21991644 354.68399063 319.11011219 356.52612305 320.00341797 C357.34894775 320.39803223 358.17177246 320.79264648 359.01953125 321.19921875 C359.74245361 321.54815186 360.46537598 321.89708496 361.21020508 322.2565918 C362.98482735 323.12786216 362.98482735 323.12786216 365 323 C365 323.66 365 324.32 365 325 C365.8353125 325.26425781 366.670625 325.52851562 367.53125 325.80078125 C371.26962118 327.09321363 374.88291355 328.59476018 378.5 330.1875 C379.19633545 330.49284668 379.8926709 330.79819336 380.61010742 331.11279297 C386.31114281 333.63954257 391.88005419 336.37367907 397.42578125 339.2265625 C406.26742635 343.61356455 415.35453245 347.50588201 424.3644104 351.53204346 C433.6629183 355.68895972 442.94872269 359.86396733 452.1640625 364.203125 C457.322558 366.62832453 462.5060542 368.99934453 467.6875 371.375 C469.23207886 372.08354126 469.23207886 372.08354126 470.80786133 372.80639648 C476.52465577 375.42403225 482.25336659 378.01220389 487.99658203 380.57128906 C495.51590725 383.92396655 502.93954038 387.39955674 510.28198242 391.12402344 C514.59097956 393.3075818 518.92937714 395.40692382 523.3125 397.4375 C523.91747314 397.71811279 524.52244629 397.99872559 525.14575195 398.2878418 C526.41427115 398.87574053 527.68291077 399.46337946 528.95166016 400.05078125 C539.2359122 404.81659436 549.46305723 409.60871012 559.41552734 415.03955078 C564.93022473 418.02462527 570.57926954 420.68908092 576.27978516 423.29907227 C579.23899659 424.66113094 582.02647066 426.01633218 584.8046875 427.73046875 C587.01017568 429.25030559 587.01017568 429.25030559 590 429 C590 429.66 590 430.32 590 431 C590.78375 431.20625 591.5675 431.4125 592.375 431.625 C595.4003025 432.77252853 597.65937672 433.93690985 600.375 435.625 C604.70070325 438.30343395 609.11924664 440.59001762 613.6875 442.8125 C619.88593317 445.84392008 625.80894936 449.17483325 631.69262695 452.77563477 C636.13821992 455.49623118 640.64473697 458.05758214 645.2421875 460.515625 C652.56342504 464.45623444 659.75255634 468.58586951 666.875 472.875 C667.75341553 473.40311279 668.63183105 473.93122559 669.53686523 474.4753418 C675.75336204 478.22341374 681.90159371 482.06267944 688 486 C688.83789062 486.52464844 689.67578125 487.04929687 690.5390625 487.58984375 C696.84155882 491.5405236 702.97057113 495.70825226 709.08325195 499.94335938 C712.96665754 502.62635549 716.87846305 505.23659716 720.875 507.75 C727.69787681 512.04131166 734.31440908 516.25952886 740 522 C741.62785601 523.35522321 743.2745442 524.68808417 744.9375 526 C745.77152344 526.66 746.60554688 527.32 747.46484375 528 C749.23310681 529.39499335 751.01848062 530.7684514 752.81640625 532.125 C753.53699219 532.74375 754.25757813 533.3625 755 534 C755 534.66 755 535.32 755 536 C755.5878125 536.27199219 756.175625 536.54398438 756.78125 536.82421875 C762.23291174 539.71321555 766.27097965 544.16608473 770 549 C770.66 549.33 771.32 549.66 772 550 C772 550.66 772 551.32 772 552 C772.66 552 773.32 552 774 552 C775.625 553.375 775.625 553.375 777 555 C777 555.66 777 556.32 777 557 C777.66 557 778.32 557 779 557 C780.5078125 558.4609375 780.5078125 558.4609375 782.125 560.375 C782.93324219 561.31472656 782.93324219 561.31472656 783.7578125 562.2734375 C785 564 785 564 785 566 C785.66 566 786.32 566 787 566 C787 566.66 787 567.32 787 568 C787.66 568 788.32 568 789 568 C792 571.46153846 792 571.46153846 792 574 C792.66 574 793.32 574 794 574 C794 574.66 794 575.32 794 576 C794.66 576 795.32 576 796 576 C797.2890625 577.4609375 797.2890625 577.4609375 798.625 579.375 C799.29402344 580.31472656 799.29402344 580.31472656 799.9765625 581.2734375 C801 583 801 583 801 585 C801.66 585 802.32 585 803 585 C803.66 586.65 804.32 588.3 805 590 C805.66 590 806.32 590 807 590 C811 595.41176471 811 595.41176471 811 598 C811.66 598 812.32 598 813 598 C813 598.99 813 599.98 813 601 C813.66 601 814.32 601 815 601 C815 601.99 815 602.98 815 604 C815.66 604 816.32 604 817 604 C821 609.29411765 821 609.29411765 821 613 C821.66 613 822.32 613 823 613 C824.23339844 614.56958008 824.23339844 614.56958008 825.609375 616.76953125 C826.1137207 617.57036133 826.61806641 618.37119141 827.13769531 619.19628906 C827.66975586 620.05963867 828.20181641 620.92298828 828.75 621.8125 C829.29495117 622.68745117 829.83990234 623.56240234 830.40136719 624.46386719 C834.15792416 630.53422918 837.69324464 636.67325397 841 643 C841.6971649 644.27456307 842.39655566 645.54791009 843.09765625 646.8203125 C843.83607194 648.17180155 844.57435386 649.5233637 845.3125 650.875 C845.66280273 651.50631836 846.01310547 652.13763672 846.37402344 652.78808594 C848.20474391 656.17302123 849.49786125 659.17210169 850 663 C850.66 663 851.32 663 852 663 C852.43570313 664.07636719 852.87140625 665.15273438 853.3203125 666.26171875 C853.92171855 667.73704295 854.52329018 669.21229966 855.125 670.6875 C855.40859375 671.38939453 855.6921875 672.09128906 855.984375 672.81445312 C857.78093122 677.20820476 859.71545078 681.49562707 861.7734375 685.7734375 C866.01664472 694.91076073 869.21672555 704.42265031 872.5 713.9375 C872.83182281 714.89398437 873.16364563 715.85046875 873.50552368 716.8359375 C880.14260973 735.99730022 885.62200671 755.04831239 889.57958984 774.9453125 C890.16561673 777.80942533 890.8408567 780.65193696 891.5 783.5 C897.27442357 810.60508114 899.2250995 838.35175258 900 866 C900.02336426 866.80614746 900.04672852 867.61229492 900.07080078 868.44287109 C900.64404487 891.62794484 898.95357335 915.15263548 895 938 C894.82065918 939.05670898 894.64131836 940.11341797 894.45654297 941.20214844 C891.9754536 955.67482487 889.03254352 969.8810612 885 984 C884.63323146 985.31876513 884.26731673 986.63776807 883.90234375 987.95703125 C878.90298603 1005.80644913 872.03674739 1022.75946065 864.375 1039.625 C863.71081055 1041.09851929 863.71081055 1041.09851929 863.03320312 1042.60180664 C860.44735994 1048.22372384 857.59346584 1053.53945072 854.34765625 1058.80761719 C852.73813358 1061.42600733 851.26267542 1064.10306862 849.8125 1066.8125 C847.96053583 1070.26643868 846.03770706 1073.65190906 844 1077 C843.01 1076.67 842.02 1076.34 841 1076 C841.13277344 1074.92105469 841.26554687 1073.84210938 841.40234375 1072.73046875 C844.14837294 1049.73182545 844.8411761 1026.69745412 843.1796875 1003.58496094 C842.96797817 1000.53933807 842.78111089 997.49252913 842.59375 994.4453125 C841.27407008 973.50658047 839.70230311 952.513202 835.7421875 931.8828125 C835.23550645 929.23207056 834.75697044 926.59140245 834.3203125 923.9296875 C832.42994244 912.48267052 829.82166788 901.25078383 827 890 C826.81791992 889.26910156 826.63583984 888.53820313 826.44824219 887.78515625 C824.62283772 880.51103975 822.53046544 873.48182572 819.8671875 866.47265625 C818.8163371 863.47631253 818.18802486 860.48448157 817.5546875 857.37890625 C815.85858295 850.10476773 813.18862251 843.11076764 810.06640625 836.33984375 C807.91365375 831.61640511 805.97302531 826.80060935 804 822 C803.45472656 820.67742187 803.45472656 820.67742187 802.8984375 819.328125 C800.71065745 813.95052824 798.76356734 808.53118847 797 803 C796.34 803 795.68 803 795 803 C794.69707031 802.23816406 794.39414063 801.47632813 794.08203125 800.69140625 C791.70125757 794.8237148 789.19889521 789.26094378 785.91796875 783.83984375 C785 782 785 782 785 779 C784.34 779 783.68 779 783 779 C782.67 777.35 782.34 775.7 782 774 C781.34 774 780.68 774 780 774 C779.46375 772.865625 778.9275 771.73125 778.375 770.5625 C776.32976463 766.42788749 773.85164172 762.72816231 771.171875 758.98046875 C770 757 770 757 770 754 C769.34 754 768.68 754 768 754 C768 753.01 768 752.02 768 751 C767.34 751 766.68 751 766 751 C765.2265625 749.5459375 765.2265625 749.5459375 764.4375 748.0625 C762.16513803 744.03459485 759.34309621 740.56355258 756.390625 737.015625 C755 735 755 735 755 732 C754.34 732 753.68 732 753 732 C751.62101957 730.30189246 750.32040522 728.53964541 749.0625 726.75 C748.37285156 725.77546875 747.68320313 724.8009375 746.97265625 723.796875 C745.99619141 722.41242188 745.99619141 722.41242188 745 721 C744.42121094 720.26265625 743.84242188 719.5253125 743.24609375 718.765625 C742 717 742 717 742 715 C741.34 715 740.68 715 740 715 C740 714.34 740 713.68 740 713 C739.34 713 738.68 713 738 713 C738 712.01 738 711.02 738 710 C737.34 710 736.68 710 736 710 C733 706.53846154 733 706.53846154 733 704 C732.34 704 731.68 704 731 704 C731 703.34 731 702.68 731 702 C730.34 702 729.68 702 729 702 C726 698.53846154 726 698.53846154 726 696 C725.34 696 724.68 696 724 696 C722.60868258 694.40288354 721.28482665 692.74647316 720 691.0625 C717.45663229 687.48783076 717.45663229 687.48783076 714 685 C714 684.34 714 683.68 714 683 C713.34 683 712.68 683 712 683 C710.66796875 681.64453125 710.66796875 681.64453125 709.1875 679.8125 C705.92984598 675.89066409 702.6183561 672.24488931 698.5625 669.125 C695.80412318 666.83756556 693.67444085 664.36457814 691.4296875 661.5859375 C689.89374096 659.75106596 689.89374096 659.75106596 687 658 C687 657.34 687 656.68 687 656 C686.41992188 655.73832031 685.83984375 655.47664062 685.2421875 655.20703125 C682.86901245 653.9294858 681.1199157 652.49414053 679.125 650.6875 C676.63224873 648.44682471 674.12196247 646.27512889 671.5 644.1875 C670.675 643.465625 669.85 642.74375 669 642 C669 641.34 669 640.68 669 640 C668.278125 639.773125 667.55625 639.54625 666.8125 639.3125 C663.46347777 637.74962296 661.52752454 635.66414749 659 633 C658.34 632.67 657.68 632.34 657 632 C657 631.34 657 630.68 657 630 C654.78063948 628.84922047 652.69747265 627.90150272 650.3125 627.125 C649.549375 626.75375 648.78625 626.3825 648 626 C647.66666667 624.66666667 647.33333333 623.33333333 647 622 C646.32195313 621.74863281 645.64390625 621.49726562 644.9453125 621.23828125 C640.88246247 619.53015995 637.80803325 616.91744421 634.375 614.1875 C627.30155394 608.66173483 620.04815083 603.49430256 612.59716797 598.4909668 C608.21242981 595.54172533 603.93694786 592.50374969 599.74707031 589.2824707 C597.62955136 587.72806502 595.39098368 586.44244456 593.08984375 585.1796875 C588.5534263 582.61894344 584.15974162 579.80977129 579.73046875 577.06884766 C576.94969456 575.3512645 574.16144816 573.6458581 571.375 571.9375 C567.34405854 569.46176552 563.34787519 566.94269632 559.375 564.375 C555.1193937 561.65969183 550.7948324 559.1759018 546.34375 556.796875 C543.64494144 555.34658068 540.96067393 553.87614158 538.28125 552.390625 C530.30817668 547.97164021 522.34811852 543.58201579 514.15625 539.578125 C510.86380598 537.93190299 507.61710447 536.2130432 504.36865234 534.48217773 C496.31139795 530.19139444 488.18910023 526.11917099 479.91796875 522.25683594 C474.87845879 519.90159389 469.89570767 517.45891569 464.9375 514.9375 C459.36474223 512.11169945 453.72419348 509.50414425 448 507 C442.46231211 504.57715187 437.00855877 502.06092967 431.625 499.3125 C424.2316036 495.54367343 416.72011016 492.0431172 409.1875 488.5625 C408.57879059 488.28118225 407.97008118 487.9998645 407.34292603 487.71002197 C406.12091953 487.14532666 404.89890926 486.58063951 403.67689514 486.01596069 C395.86600039 482.40651475 388.08254 478.74323549 380.3125 475.046875 C377.42147644 473.67181235 374.52570264 472.30764954 371.625 470.953125 C362.66819158 466.76931282 353.79526478 462.44696251 344.97070312 457.99121094 C343.02046079 457.01029123 341.06585619 456.03872153 339.109375 455.0703125 C331.86996509 451.48225623 324.69596415 447.79465671 317.5625 444 C311.55176055 440.80288853 305.49915652 437.7786896 299.3125 434.9375 C293.20115543 432.1192024 287.3207035 429.04424849 281.48681641 425.69140625 C276.60328108 422.88674443 271.66677623 420.20007427 266.69897461 417.54760742 C253.30696117 410.38746728 240.24875845 402.73171441 227.22607422 394.92382812 C224.17263462 393.10294845 221.10762105 391.30417427 218.03515625 389.515625 C208.36539721 383.88019717 198.87665142 378.09248089 189.63061523 371.78027344 C188.94555908 371.31266602 188.26050293 370.84505859 187.5546875 370.36328125 C186.96155762 369.95376221 186.36842773 369.54424316 185.75732422 369.12231445 C183.89608259 367.93363319 181.99023019 366.95411887 180 366 C180 365.34 180 364.68 180 364 C179.26225342 363.72776611 178.52450684 363.45553223 177.7644043 363.17504883 C175.14567659 362.06192188 173.08479606 360.83753684 170.76953125 359.19921875 C169.57734985 358.36052246 169.57734985 358.36052246 168.36108398 357.50488281 C167.09953491 356.60527832 167.09953491 356.60527832 165.8125 355.6875 C164.93988525 355.07100586 164.06727051 354.45451172 163.16821289 353.81933594 C154.95993095 348.00714099 146.80561998 342.11921486 138.67553711 336.19824219 C137.13962492 335.09985124 135.57111916 334.04741277 134 333 C134 332.34 134 331.68 134 331 C133.4328125 330.72929688 132.865625 330.45859375 132.28125 330.1796875 C126.56070181 327.22145881 121.47591077 323.62029499 117 319 C115.69868491 318.00601677 114.38478735 317.02840879 113.0625 316.0625 C109.73459306 313.61587212 106.88543378 310.96341847 104 308 C102.6078125 306.9171875 102.6078125 306.9171875 101.1875 305.8125 C100.465625 305.214375 99.74375 304.61625 99 304 C99 303.34 99 302.68 99 302 C98.41734375 301.731875 97.8346875 301.46375 97.234375 301.1875 C94.97213399 299.98519009 93.19423682 298.66174087 91.25 297 C90.63640625 296.484375 90.0228125 295.96875 89.390625 295.4375 C88 294 88 294 88 292 C87.01 291.67 86.02 291.34 85 291 C85 290.34 85 289.68 85 289 C84.1646875 288.6596875 84.1646875 288.6596875 83.3125 288.3125 C80.32795251 286.61856764 78.37345955 284.48385302 76 282 C75.38125 281.401875 74.7625 280.80375 74.125 280.1875 C73.485625 279.56875 72.84625 278.95 72.1875 278.3125 C71.28064453 277.44044922 71.28064453 277.44044922 70.35546875 276.55078125 C69 275 69 275 69 273 C68.01 272.67 67.02 272.34 66 272 C66 271.34 66 270.68 66 270 C65.34 270 64.68 270 64 270 C62.30859375 268.35546875 62.30859375 268.35546875 60.4375 266.1875 C59.81746094 265.47980469 59.19742188 264.77210938 58.55859375 264.04296875 C57 262 57 262 56 259 C55.34 259 54.68 259 54 259 C54 258.34 54 257.68 54 257 C53.34 257 52.68 257 52 257 C49 253.53846154 49 253.53846154 49 251 C48.34 251 47.68 251 47 251 C47 250.34 47 249.68 47 249 C46.34 249 45.68 249 45 249 C45 248.01 45 247.02 45 246 C44.34 246 43.68 246 43 246 C41.76318359 244.65478516 41.76318359 244.65478516 40.3984375 242.7890625 C39.90859375 242.12132812 39.41875 241.45359375 38.9140625 240.765625 C38.40617187 240.05921875 37.89828125 239.3528125 37.375 238.625 C36.6015625 237.57699219 36.6015625 237.57699219 35.8125 236.5078125 C32 231.26310351 32 231.26310351 32 229 C31.34 229 30.68 229 30 229 C30 228.01 30 227.02 30 226 C29.34 226 28.68 226 28 226 C26.2734375 223.6640625 26.2734375 223.6640625 24.375 220.625 C23.74335938 219.62726563 23.11171875 218.62953125 22.4609375 217.6015625 C21 215 21 215 21 213 C20.34 213 19.68 213 19 213 C19 212.01 19 211.02 19 210 C18.34 210 17.68 210 17 210 C16.62488281 209.2265625 16.24976563 208.453125 15.86328125 207.65625 C13.1338139 202.10106205 10.37980093 196.73461456 6.8828125 191.62109375 C6 190 6 190 6 187 C5.34 187 4.68 187 4 187 C3.67 185.02 3.34 183.04 3 181 C2.34 181 1.68 181 1 181 C-0.25664978 178.09399739 -1 176.20395416 -1 173 C-1.66 173 -2.32 173 -3 173 C-3.24234375 172.23816406 -3.4846875 171.47632813 -3.734375 170.69140625 C-6.01713789 163.64111118 -6.01713789 163.64111118 -8.875 156.8125 C-22.90430933 125.84937589 -27.22833284 90.58704795 -27.1875 56.875 C-27.18756042 56.10807831 -27.18762085 55.34115662 -27.18768311 54.55099487 C-27.15210011 22.82130732 -27.15210011 22.82130732 -23 16 C-22.34 16 -21.68 16 -21 16 C-21 15.34 -21 14.68 -21 14 C-20.01 14 -19.02 14 -18 14 C-18 13.34 -18 12.68 -18 12 C-12.58823529 8 -12.58823529 8 -10 8 C-10 7.34 -10 6.68 -10 6 C-8.06640625 4.4921875 -8.06640625 4.4921875 -5.5625 2.875 C-4.73878906 2.33617187 -3.91507812 1.79734375 -3.06640625 1.2421875 C-1 0 -1 0 0 0 Z " fill="#E36414" transform="translate(295,239)"/>
<path d="M0 0 C1.36125 1.299375 1.36125 1.299375 2.75 2.625 C2.75 3.285 2.75 3.945 2.75 4.625 C3.41 4.625 4.07 4.625 4.75 4.625 C4.75 5.285 4.75 5.945 4.75 6.625 C6.73 7.615 6.73 7.615 8.75 8.625 C8.75 9.285 8.75 9.945 8.75 10.625 C9.41 10.625 10.07 10.625 10.75 10.625 C15.51051232 16.80748353 19.54410103 23.51689821 22.75 30.625 C23.08644531 31.31851563 23.42289063 32.01203125 23.76953125 32.7265625 C28.32667984 42.3870348 30.34950595 51.98156716 30.75 62.625 C30.77723145 63.3051416 30.80446289 63.9852832 30.83251953 64.68603516 C31.66049841 88.23917027 24.89918287 110.74978308 9.32421875 128.86328125 C-2.22258916 141.25113131 -14.24308132 149.65818437 -30.25 155.625 C-31.01183594 155.92277344 -31.77367187 156.22054687 -32.55859375 156.52734375 C-49.75679478 162.51839818 -71.06441231 162.1672356 -88.25 156.625 C-89.28382813 156.29757812 -90.31765625 155.97015625 -91.3828125 155.6328125 C-108.46868447 149.66305 -125.55952993 137.15956894 -135.25 121.625 C-135.95484519 119.97411676 -136.63161344 118.31017663 -137.25 116.625 C-137.91 116.625 -138.57 116.625 -139.25 116.625 C-146.17322593 103.82870038 -150.86030904 91.36548424 -151.25 76.625 C-151.27046387 75.90086914 -151.29092773 75.17673828 -151.31201172 74.43066406 C-151.95111463 48.56020057 -144.85238686 26.01967304 -127.25 6.625 C-119.76781882 -1.18026371 -111.19879076 -8.0072382 -101.25 -12.375 C-100.59 -12.375 -99.93 -12.375 -99.25 -12.375 C-99.25 -13.035 -99.25 -13.695 -99.25 -14.375 C-98.38117187 -14.64054687 -97.51234375 -14.90609375 -96.6171875 -15.1796875 C-94.88855469 -15.70949219 -94.88855469 -15.70949219 -93.125 -16.25 C-91.98804688 -16.59804688 -90.85109375 -16.94609375 -89.6796875 -17.3046875 C-87.59285244 -17.95593215 -85.51893739 -18.65403939 -83.4765625 -19.43359375 C-54.25103303 -27.96065501 -23.00388862 -18.90099065 0 0 Z " fill="#0F4C5C" transform="translate(859.25,400.375)"/>
<path d="M0 0 C0.92296875 0.24492188 1.8459375 0.48984375 2.796875 0.7421875 C17.88778236 5.25349049 31.18562522 13.56766094 42 25 C42.77988281 25.76054688 43.55976562 26.52109375 44.36328125 27.3046875 C52.57567058 35.69957437 58.34459464 45.27074545 63 56 C63.61875 57.41732422 63.61875 57.41732422 64.25 58.86328125 C70.18529163 74.9889449 70.65282767 94.55753729 66 111 C65.70738281 112.13308594 65.41476562 113.26617188 65.11328125 114.43359375 C60.4506753 131.13634671 51.45561188 144.14816105 39 156 C38.22398437 156.81726563 37.44796875 157.63453125 36.6484375 158.4765625 C33.75685684 161.23166738 30.68215269 163.39044112 27.3125 165.5 C26.69383057 165.88945801 26.07516113 166.27891602 25.43774414 166.68017578 C16.98436723 171.93873956 9.43686759 175.44557617 -0.41015625 177.421875 C-2.91731229 177.73862328 -2.91731229 177.73862328 -4 179 C-19.91737605 181.14884577 -38.21607579 181.9571408 -53 175 C-54.60875 174.5978125 -54.60875 174.5978125 -56.25 174.1875 C-75.10994118 168.21518529 -92.64694116 152.23745554 -102 135 C-102.45761719 134.16855469 -102.91523437 133.33710937 -103.38671875 132.48046875 C-114.46968549 111.34628293 -117.72052483 86.04951085 -111 63 C-102.9357993 37.77352601 -85.29296005 18.02964855 -62.0625 5.6875 C-43.89404309 -2.94131858 -19.57199045 -5.35460116 0 0 Z " fill="#0F4C5C" transform="translate(1233,662)"/>
<path d="M0 0 C3.52614402 3.58274344 6.54170391 7.36850956 9.43359375 11.47265625 C9.9440625 12.15585937 10.45453125 12.8390625 10.98046875 13.54296875 C20.49389468 26.83234209 24.85267633 42.33019353 25.43359375 58.47265625 C25.4608252 59.13604004 25.48805664 59.79942383 25.51611328 60.48291016 C26.43393696 85.34496427 17.90935135 107.81431674 1.43359375 126.47265625 C-1.74477407 129.68463218 -5.06810595 132.615711 -8.56640625 135.47265625 C-9.17484375 136.00117187 -9.78328125 136.5296875 -10.41015625 137.07421875 C-29.01039073 152.32967422 -54.61728396 157.21474088 -78.08203125 155.01171875 C-102.78914116 151.18931834 -124.80388088 137.85768923 -140.00390625 118.09765625 C-149.46897865 104.07532677 -156.12013338 88.52804106 -156.56640625 71.47265625 C-156.58687012 70.7470752 -156.60733398 70.02149414 -156.62841797 69.27392578 C-157.29091588 42.46192368 -149.39959015 20.04328688 -131.359375 0.0234375 C-127.6994772 -3.76242236 -124.01468217 -6.73424026 -119.56640625 -9.52734375 C-119.09976563 -10.01203125 -118.633125 -10.49671875 -118.15234375 -10.99609375 C-116.38504031 -12.70245569 -114.70680398 -13.64015906 -112.50390625 -14.71484375 C-111.81167969 -15.05902344 -111.11945312 -15.40320313 -110.40625 -15.7578125 C-108.56640625 -16.52734375 -108.56640625 -16.52734375 -106.56640625 -16.52734375 C-106.56640625 -17.18734375 -106.56640625 -17.84734375 -106.56640625 -18.52734375 C-68.32819298 -33.61388447 -30.77405239 -28.89813047 0 0 Z " fill="#0F4C5C" transform="translate(1081.56640625,530.52734375)"/>
<path d="" fill="#E26515" transform="translate(0,0)"/>
<path d="" fill="#E26515" transform="translate(0,0)"/>
<path d="" fill="#E26515" transform="translate(0,0)"/>
<path d="" fill="#E26515" transform="translate(0,0)"/>
<path d="" fill="#E46515" transform="translate(0,0)"/>
<path d="" fill="#E26515" transform="translate(0,0)"/>
<path d="" fill="#E36515" transform="translate(0,0)"/>
<path d="" fill="#E36414" transform="translate(0,0)"/>
<path d="" fill="#E36414" transform="translate(0,0)"/>
<path d="" fill="#E36414" transform="translate(0,0)"/>
<path d="" fill="#104C5C" transform="translate(0,0)"/>
<path d="" fill="#104C5C" transform="translate(0,0)"/>
<path d="" fill="#E46515" transform="translate(0,0)"/>
<path d="" fill="#E26515" transform="translate(0,0)"/>
<path d="" fill="#E26515" transform="translate(0,0)"/>
<path d="" fill="#E26515" transform="translate(0,0)"/>
<path d="" fill="#E36414" transform="translate(0,0)"/>
<path d="" fill="#E26515" transform="translate(0,0)"/>
<path d="" fill="#E26515" transform="translate(0,0)"/>
<path d="" fill="#E26515" transform="translate(0,0)"/>
<path d="" fill="#E26415" transform="translate(0,0)"/>
<path d="" fill="#E26515" transform="translate(0,0)"/>
<path d="" fill="#E46414" transform="translate(0,0)"/>
<path d="" fill="#104D5D" transform="translate(0,0)"/>
<path d="" fill="#E26515" transform="translate(0,0)"/>
<path d="" fill="#E26415" transform="translate(0,0)"/>
<path d="" fill="#E26515" transform="translate(0,0)"/>
<path d="" fill="#E26515" transform="translate(0,0)"/>
<path d="" fill="#E26415" transform="translate(0,0)"/>
<path d="" fill="#E26415" transform="translate(0,0)"/>
<path d="" fill="#E36414" transform="translate(0,0)"/>
<path d="" fill="#E26415" transform="translate(0,0)"/>
<path d="" fill="#E36515" transform="translate(0,0)"/>
<path d="" fill="#E26415" transform="translate(0,0)"/>
<path d="" fill="#E26415" transform="translate(0,0)"/>
<path d="" fill="#104C5C" transform="translate(0,0)"/>
<path d="" fill="#104C5C" transform="translate(0,0)"/>
<path d="" fill="#E26415" transform="translate(0,0)"/>
<path d="" fill="#E26415" transform="translate(0,0)"/>
<path d="" fill="#E26415" transform="translate(0,0)"/>
<path d="" fill="#E46414" transform="translate(0,0)"/>
<path d="" fill="#E26415" transform="translate(0,0)"/>
<path d="" fill="#E46515" transform="translate(0,0)"/>
<path d="" fill="#E36515" transform="translate(0,0)"/>
<path d="" fill="#E46515" transform="translate(0,0)"/>
<path d="" fill="#E36414" transform="translate(0,0)"/>
<path d="" fill="#E46414" transform="translate(0,0)"/>
<path d="" fill="#E46414" transform="translate(0,0)"/>
<path d="" fill="#E36414" transform="translate(0,0)"/>
</svg>
